<?xml version="1.0" standalone="no"?>
<!DOCTYPE svg PUBLIC "-//W3C//DTD SVG 20010904//EN"
 "http://www.w3.org/TR/2001/REC-SVG-20010904/DTD/svg10.dtd">
<svg version="1.0" xmlns="http://www.w3.org/2000/svg"
 width="498.000000pt" height="498.000000pt" viewBox="0 0 498.000000 498.000000"
 preserveAspectRatio="xMidYMid meet">
<metadata>
Created by potrace 1.11, written by Peter Selinger 2001-2013
</metadata>
<g transform="translate(0.000000,498.000000) scale(0.100000,-0.100000)"
fill="#000000" stroke="none">
<path d="M1075 4962 c-155 -72 -186 -269 -60 -380 24 -21 60 -43 79 -49 43
-13 144 -9 159 6 7 7 80 -59 252 -232 133 -133 252 -258 264 -277 18 -31 21
-50 21 -165 l0 -131 -110 -1 c-60 -1 -124 -6 -143 -12 -33 -11 -57 -44 -57
-77 0 -24 57 -77 72 -67 19 11 1804 11 1853 -1 67 -16 120 -59 152 -123 l28
-58 -2 -900 c0 -495 -2 -915 -4 -933 -5 -66 70 -104 118 -60 26 25 36 78 36
200 0 57 4 88 11 88 15 1 495 1 574 0 58 0 63 -2 73 -26 15 -41 84 -100 131
-113 100 -28 174 -9 242 64 131 139 34 368 -161 380 -80 5 -185 -58 -214 -126
l-11 -29 -323 0 -322 0 0 80 c0 44 3 80 6 81 3 1 82 2 174 3 164 1 169 2 188
25 25 30 24 76 -1 101 -18 18 -33 20 -193 20 l-174 0 1 83 1 82 580 1 c319 1
590 2 602 3 30 1 63 39 63 70 -1 32 -19 58 -51 69 -13 4 -288 8 -610 7 l-587
0 1 82 1 83 173 0 c164 0 173 1 193 22 27 29 26 79 -1 104 -19 17 -38 19 -193
19 l-171 1 -1 82 -1 82 130 0 c137 0 189 10 249 47 20 12 150 135 288 273 243
243 251 249 278 239 69 -27 182 0 236 57 40 43 57 79 62 140 10 94 -33 173
-119 219 -60 33 -137 37 -198 11 -45 -19 -112 -93 -126 -139 -11 -38 -11 -106
1 -149 7 -25 -9 -44 -238 -273 -151 -152 -259 -251 -280 -260 -25 -11 -73 -15
-159 -15 l-124 0 -1 111 c-1 159 -32 240 -123 328 -44 42 -120 83 -177 96 -19
4 -80 7 -138 8 l-104 0 0 51 c-1 28 -2 173 -3 323 l-2 271 42 21 c100 48 143
193 91 301 -17 35 -77 90 -116 107 -124 52 -269 -18 -306 -149 -31 -107 22
-225 120 -270 l24 -11 0 -322 0 -322 -80 0 c-44 0 -80 3 -81 6 -1 3 -2 81 -3
173 -1 148 -3 168 -20 187 -25 27 -79 28 -106 1 -18 -18 -20 -33 -20 -193 l0
-174 -80 0 c-54 -1 -80 2 -81 10 -1 7 -3 269 -4 582 -1 314 -3 580 -4 592 -1
31 -39 63 -73 63 -28 0 -67 -29 -69 -52 -1 -7 -3 -274 -4 -593 -1 -319 -3
-585 -4 -591 -1 -8 -28 -12 -81 -11 l-80 1 0 173 c0 160 -2 175 -20 193 -11
11 -26 21 -32 21 -32 3 -54 -4 -73 -22 -18 -18 -20 -33 -20 -182 0 -89 -4
-167 -7 -173 -4 -6 -39 -11 -82 -11 l-74 -1 -4 152 c-3 134 -6 156 -27 199
-17 35 -98 123 -283 309 -142 142 -256 263 -253 269 22 35 21 129 -3 182 -51
113 -189 168 -297 119z m145 -154 c11 -12 20 -24 21 -27 0 -3 2 -16 5 -29 6
-32 -45 -82 -83 -82 -34 0 -70 30 -79 64 -6 26 17 81 38 89 32 13 78 6 98 -15z
m1951 -155 c35 -36 25 -104 -19 -127 -37 -18 -72 -11 -100 21 -64 72 52 175
119 106z m1612 -762 c21 -2 47 -44 47 -76 0 -32 -26 -74 -47 -76 -5 0 -18 -2
-31 -5 -32 -6 -82 45 -82 83 1 46 44 86 85 78 11 -2 23 -4 28 -4z m-133 -1970
c23 -22 28 -35 25 -61 -8 -62 -56 -88 -114 -64 -56 24 -63 95 -14 134 36 28
70 25 103 -9z"/>
<path d="M1281 3476 c-26 -27 -36 -91 -35 -208 l1 -78 -323 0 -323 0 -17 35
c-19 41 -80 92 -126 106 -179 54 -344 -106 -292 -282 56 -187 311 -220 412
-54 l27 44 321 1 322 0 -1 -80 c0 -44 -2 -81 -6 -81 -3 -1 -81 -2 -172 -3
-149 -1 -169 -3 -188 -20 -27 -25 -28 -79 -1 -106 18 -18 33 -20 193 -20 l174
0 -1 -82 -1 -83 -595 0 c-452 -1 -600 -4 -617 -13 -26 -14 -38 -51 -29 -85 12
-51 14 -51 639 -53 320 0 587 -2 593 -2 9 -2 13 -110 5 -154 0 -5 -77 -8 -171
-8 -157 0 -172 -2 -190 -20 -27 -27 -26 -81 1 -106 18 -16 39 -19 192 -19
l172 -1 1 -78 c0 -48 -3 -79 -10 -81 -6 -2 -74 -5 -151 -7 -126 -3 -145 -6
-190 -28 -35 -18 -124 -100 -307 -283 -229 -227 -261 -256 -278 -247 -33 18
-124 14 -171 -7 -150 -67 -185 -255 -70 -370 90 -91 244 -85 329 11 18 21 38
50 43 65 16 41 19 112 7 153 l-11 38 244 243 c134 134 258 251 276 260 28 15
156 23 273 18 13 -1 16 -20 17 -110 1 -175 48 -278 163 -363 68 -50 144 -70
268 -70 l112 -1 0 -322 0 -321 -40 -23 c-155 -87 -147 -319 14 -399 156 -78
330 34 329 211 0 83 -54 165 -130 200 l-23 10 0 322 0 322 80 0 c67 0 80 -2
81 -16 1 -9 2 -87 3 -174 1 -154 2 -159 25 -178 30 -25 76 -24 101 1 18 18 20
33 20 194 l0 173 80 0 c44 0 81 -2 81 -6 1 -3 2 -271 3 -596 2 -632 2 -629 53
-641 35 -9 93 22 94 50 1 12 2 282 4 601 1 319 3 583 4 586 0 4 37 7 81 6 l80
0 0 -174 c0 -160 2 -175 20 -193 27 -27 81 -26 106 1 17 19 19 38 19 193 l0
171 82 1 81 2 4 -152 c4 -133 7 -157 28 -199 17 -35 95 -121 281 -308 251
-252 258 -260 248 -287 -17 -43 -12 -127 10 -169 66 -130 215 -171 333 -93
141 93 130 312 -18 389 -54 28 -107 35 -165 21 l-50 -12 -243 243 c-134 134
-250 258 -259 276 -13 25 -17 61 -17 161 l0 128 115 2 c126 1 160 11 184 53
12 22 12 32 2 56 -15 37 -45 51 -91 43 -19 -3 -435 -5 -925 -5 -875 1 -891 1
-935 21 -59 27 -106 77 -128 136 -17 45 -18 107 -17 952 0 497 3 907 7 911 12
13 -13 62 -38 74 -37 17 -58 14 -83 -13z m-868 -285 c4 -1 18 -12 31 -26 47
-50 10 -129 -60 -129 -87 0 -111 123 -29 154 11 4 27 6 35 4 8 -1 19 -3 23 -3z
m-128 -1971 c35 -33 33 -74 -5 -112 -25 -25 -35 -29 -63 -23 -41 8 -67 39 -67
79 0 75 80 108 135 56z m1643 -786 c61 -69 -39 -170 -111 -113 -44 33 -38 111
10 138 28 15 76 3 101 -25z m1934 -138 c29 -21 41 -65 27 -98 -27 -65 -113
-66 -147 -1 -12 21 -10 38 10 80 16 33 78 44 110 19z"/>
<path d="M2160 2980 c-142 -26 -258 -154 -276 -300 -8 -69 16 -168 53 -225 14
-22 144 -158 288 -303 228 -230 264 -263 281 -254 30 16 518 513 547 557 38
57 61 155 52 224 -34 277 -357 401 -563 216 l-49 -44 -29 30 c-74 78 -199 119
-304 99z"/>
</g>
</svg>
